<svg xmlns="http://www.w3.org/2000/svg" width="817" height="314" fill="none"><g clip-path="url(#a)"><path fill="url(#b)" d="M3.91 177.461C.383 141.961.383 121.774 2.499 66.086l95.384-26.514 94.263 26.514c1.895 62.649 1.895 77.963-1.379 111.375-13.29 33.95-37.064 66.382-92.884 88.657-56.532-22.275-80.37-54.707-93.973-88.657"/><path fill="url(#c)" d="M12.44 175.215c-3.206-32.274-3.206-50.625-1.282-101.25l86.725-24.268c33.274 9.638 52.408 14.63 85.682 24.268 1.722 56.953 1.722 70.875-1.253 101.25-12.082 30.863-33.684 60.528-84.429 80.778-51.393-20.25-73.076-49.915-85.442-80.778"/><path fill="#000" fill-opacity=".2" d="M190.768 177.461c3.273-33.412 3.273-48.726 1.378-111.375L97.884 39.572v226.546c55.819-22.275 79.594-54.707 92.884-88.657" style="mix-blend-mode:multiply"/><path fill="#E6E6E6" d="M43.138 133.86c-23.116 7.594 22.547 18.352 55.912 18.352 36.059 0 76.326-10.758 54-18.351-1.753-13.219-9.877-36.26-31.612-46.829 0 7.875-.356 22.571-5.993 33.469 2.373-15.117 1.497-37.24-.133-38.531-6.187-4.9-26.437-4.219-33.187 0-1.802 1.126-2.457 23.414 0 38.531-5.836-10.898-6.205-25.594-6.205-33.469-22.505 10.568-30.966 33.61-32.782 46.828m-.958 18.763c4.867 1.477 14.275 4.019 26.603 5.284-.216 8.86 6.058 27.939 30.267 29.11 23.885-1.171 29.613-20.25 29.405-29.11 8.89-1.075 16.889-3.072 21.972-4.554.899-.262 1.707-.508 2.412-.73v13.264l-10.621 3.411c-1.416 4.004-2.382 6.233-5.005 10.125l6.767 10.125-11.391 12.023-11.016-6.328c-3.796 3.646-6.467 4.936-11.887 6.328l-2.088 10.758H89.641l-2.215-10.758c-5.254-1.595-7.117-3.005-11.474-6.304l-.032-.024-11.68 6.328-11.679-12.023 7.138-10.125c-2.93-3.616-3.963-5.872-5.191-10.125l-12.328-3.797z"/></g><g filter="url(#d)"><path fill="url(#e)" d="M276.94 68q25.052 0 36.554 8.4t11.502 25.886q0 17.488-11.817 25.612-11.66 8.124-35.924 8.124h-19.538v28.228h-18.592V68zm2.363 53.289q15.441 0 20.956-5.095 5.673-5.232 5.672-15.147 0-10.052-7.09-14.182t-22.216-4.131h-18.908v38.555z"/><path fill="url(#f)" d="M461.466 68h18.592v96.25h-18.592z"/><path fill="url(#g)" d="M529.142 164.25H510.55V68h28.992l33.245 60.449L606.033 68h28.834v96.25h-18.593V89.068l-38.445 66.782H567.43l-38.288-66.782z"/><path fill="url(#h)" d="M410.961 129.275q23.792-6.197 23.792-30.018 0-16.386-10.872-23.821T387.799 68h-40.966v96.25h18.593V82.734h23.634q14.969 0 20.798 3.58 5.83 3.443 5.83 12.943 0 9.363-5.672 13.632-5.673 4.269-21.429 4.269h-10.466l11.727 14.733 26.313 32.359h23.634z"/><path fill="url(#i)" d="M742.859 68v15.284h-77.363V68z"/><path fill="url(#j)" d="M684.089 108.758h52.783v14.458h-52.783v25.75h60.661v15.284h-79.254v-55.492z"/><path fill="#EAEAEA" d="M261.478 201.75v35.46h-7.08v-35.46h-12.72v-6.48h32.52v6.48zm53.851 7.14q0 10.38-9.06 13.08l10.98 15.24h-9l-10.02-14.1h-9.3v14.1h-7.08v-41.94h15.6q9.6 0 13.74 3.24t4.14 10.38m-17.58 7.8q6 0 8.16-1.86t2.16-5.94q0-4.14-2.22-5.64-2.22-1.56-7.92-1.56h-9v15zm57.212-21.42v6.66h-22.38v11.1h20.1v6.3h-20.1v11.22h23.1v6.66h-30.18v-41.94zm9.798 0h7.08v41.94h-7.08zm50.131 0h7.08v41.94h-7.68l-23.76-30.6v30.6h-7.08v-41.94h7.08l24.36 31.32zm24.656 32.4-4.2 9.54h-7.56l18.48-41.94h7.56l18.48 41.94h-7.56l-4.2-9.54zm18.12-6.54-7.62-17.28-7.62 17.28zm27.552 16.08h-7.08v-41.94h11.04l12.66 26.34 12.66-26.34h10.98v41.94h-7.08v-32.76l-14.64 29.1h-3.96l-14.58-29.1zm81.384-41.94v6.66h-22.38v11.1h20.1v6.3h-20.1v11.22h23.1v6.66h-30.18v-41.94zm41.237 0h7.08v41.94h-7.68l-23.76-30.6v30.6h-7.08v-41.94h7.08l24.36 31.32zm34.557 6.48v35.46h-7.08v-35.46h-12.72v-6.48h32.52v6.48zm50.251 3.42q-4.26-4.44-10.5-4.44t-10.56 4.44q-4.26 4.44-4.26 10.8 0 6.3 4.26 10.74 4.32 4.44 10.56 4.44t10.5-4.44q4.32-4.44 4.32-10.74 0-6.36-4.32-10.8m5.22 26.28q-6.36 6.18-15.72 6.18t-15.72-6.18q-6.36-6.24-6.36-15.48 0-9.3 6.36-15.48 6.36-6.24 15.72-6.24t15.72 6.24q6.36 6.18 6.36 15.48 0 9.24-6.36 15.48m27.95-30.66q-3.06 0-5.04 1.26t-1.98 3.84q0 2.52 1.98 3.9 1.98 1.32 8.4 2.88 6.48 1.56 9.72 4.38 3.3 2.82 3.3 8.34 0 5.46-4.14 8.88t-10.86 3.42q-9.84 0-17.46-6.78l4.44-5.34q6.36 5.52 13.2 5.52 3.42 0 5.4-1.44 2.04-1.5 2.04-3.9 0-2.46-1.92-3.78-1.86-1.38-6.48-2.46-4.62-1.14-7.02-2.04-2.4-.96-4.26-2.46-3.72-2.82-3.72-8.64t4.2-8.94q4.26-3.18 10.5-3.18 4.02 0 7.98 1.32t6.84 3.72l-3.78 5.34q-1.86-1.68-5.04-2.76t-6.3-1.08"/></g><defs><linearGradient id="b" x1="97.242" x2="97.242" y1="39.572" y2="266.118" gradientUnits="userSpaceOnUse"><stop stop-color="#24D7B9"/><stop offset="1" stop-color="#1A7C6C"/></linearGradient><linearGradient id="c" x1="97.242" x2="97.242" y1="39.572" y2="266.118" gradientUnits="userSpaceOnUse"><stop stop-color="#0D6E5E"/><stop offset="1" stop-color="#043D37"/></linearGradient><linearGradient id="e" x1="492.125" x2="492.125" y1="51.625" y2="164.625" gradientUnits="userSpaceOnUse"><stop offset=".346" stop-color="#18AF96"/><stop offset=".966" stop-color="#136C5D"/></linearGradient><linearGradient id="f" x1="492.125" x2="492.125" y1="51.625" y2="164.625" gradientUnits="userSpaceOnUse"><stop offset=".346" stop-color="#18AF96"/><stop offset=".966" stop-color="#136C5D"/></linearGradient><linearGradient id="g" x1="492.125" x2="492.125" y1="51.625" y2="164.625" gradientUnits="userSpaceOnUse"><stop offset=".346" stop-color="#18AF96"/><stop offset=".966" stop-color="#136C5D"/></linearGradient><linearGradient id="h" x1="492.125" x2="492.125" y1="51.625" y2="164.625" gradientUnits="userSpaceOnUse"><stop offset=".346" stop-color="#18AF96"/><stop offset=".966" stop-color="#136C5D"/></linearGradient><linearGradient id="i" x1="492.125" x2="492.125" y1="51.625" y2="164.625" gradientUnits="userSpaceOnUse"><stop offset=".346" stop-color="#18AF96"/><stop offset=".966" stop-color="#136C5D"/></linearGradient><linearGradient id="j" x1="492.125" x2="492.125" y1="51.625" y2="164.625" gradientUnits="userSpaceOnUse"><stop offset=".346" stop-color="#18AF96"/><stop offset=".966" stop-color="#136C5D"/></linearGradient><clipPath id="a"><path fill="#fff" d="M0 39.783h193.5v226.125H0z"/></clipPath><filter id="d" width="649.625" height="313.69" x="167.125" y="0" color-interpolation-filters="sRGB" filterUnits="userSpaceOnUse"><feFlood flood-opacity="0" result="BackgroundImageFix"/><feColorMatrix in="SourceAlpha" result="hardAlpha" values="0 0 0 0 0 0 0 0 0 0 0 0 0 0 0 0 0 0 127 0"/><feOffset dy="4"/><feGaussianBlur stdDeviation="36"/><feComposite in2="hardAlpha" operator="out"/><feColorMatrix values="0 0 0 0 0 0 0 0 0 0 0 0 0 0 0 0 0 0 0.5 0"/><feBlend in2="BackgroundImageFix" result="effect1_dropShadow_37_19"/><feBlend in="SourceGraphic" in2="effect1_dropShadow_37_19" result="shape"/></filter></defs></svg>