<svg xmlns="http://www.w3.org/2000/svg" width="194" height="227" fill="none"><g clip-path="url(#a)"><path fill="url(#b)" d="M3.91 137.679C.383 102.178.383 81.991 2.499 26.304L97.883-.211l94.263 26.515c1.895 62.648 1.895 77.962-1.379 111.375-13.29 33.95-37.064 66.382-92.884 88.657-56.532-22.275-80.37-54.707-93.973-88.657"/><path fill="url(#c)" d="M12.44 135.432c-3.206-32.273-3.206-50.625-1.282-101.25L97.883 9.914c33.274 9.638 52.408 14.63 85.682 24.268 1.722 56.953 1.722 70.875-1.253 101.25-12.082 30.864-33.684 60.529-84.429 80.779-51.393-20.25-73.076-49.915-85.442-80.779"/><path fill="#000" fill-opacity=".2" d="M190.768 137.679c3.273-33.413 3.273-48.727 1.378-111.375L97.884-.211v226.547c55.819-22.275 79.594-54.707 92.884-88.657" style="mix-blend-mode:multiply"/><path fill="#E6E6E6" d="M43.138 94.078c-23.116 7.594 22.547 18.351 55.912 18.351 36.059 0 76.326-10.757 54-18.351-1.753-13.219-9.877-36.26-31.612-46.828 0 7.875-.356 22.57-5.993 33.469 2.373-15.117 1.497-37.241-.133-38.532-6.187-4.899-26.437-4.218-33.187 0-1.802 1.126-2.457 23.414 0 38.532-5.836-10.899-6.205-25.594-6.205-33.47-22.505 10.569-30.966 33.61-32.782 46.829m-.958 18.763c4.867 1.476 14.275 4.018 26.603 5.284-.216 8.859 6.058 27.938 30.267 29.109 23.885-1.171 29.613-20.25 29.405-29.109 8.89-1.076 16.889-3.072 21.972-4.554.899-.262 1.707-.508 2.412-.73v13.263l-10.621 3.411c-1.416 4.005-2.382 6.233-5.005 10.125l6.767 10.125-11.391 12.024-11.016-6.328c-3.796 3.645-6.467 4.936-11.887 6.328l-2.088 10.758H89.641l-2.215-10.758c-5.254-1.595-7.117-3.006-11.474-6.304l-.032-.024-11.68 6.328-11.679-12.024L59.7 139.64c-2.93-3.616-3.963-5.872-5.191-10.125l-12.328-3.797z"/></g><defs><linearGradient id="b" x1="97.242" x2="97.242" y1="-.211" y2="226.336" gradientUnits="userSpaceOnUse"><stop stop-color="#24D7B9"/><stop offset="1" stop-color="#1A7C6C"/></linearGradient><linearGradient id="c" x1="97.242" x2="97.242" y1="-.211" y2="226.336" gradientUnits="userSpaceOnUse"><stop stop-color="#0D6E5E"/><stop offset="1" stop-color="#043D37"/></linearGradient><clipPath id="a"><path fill="#fff" d="M0 0h193.5v226.125H0z"/></clipPath></defs></svg>