<svg xmlns="http://www.w3.org/2000/svg" width="150" height="150" fill="none"><rect width="150" height="150" fill="#18AF96" rx="20"/><path fill="#fff" d="M77.443 66.25c0-.995.386-1.948 1.073-2.652a3.62 3.62 0 0 1 2.59-1.098h17.1a3.62 3.62 0 0 1 2.59 1.098 3.8 3.8 0 0 1 1.074 2.652c0 .995-.386 1.948-1.074 2.652A3.62 3.62 0 0 1 98.206 70h-17.1a3.62 3.62 0 0 1-2.59-1.098 3.8 3.8 0 0 1-1.073-2.652M81.107 90c-.972 0-1.904.395-2.591 1.098a3.8 3.8 0 0 0-1.073 2.652c0 .995.386 1.948 1.073 2.652a3.62 3.62 0 0 0 2.59 1.098h17.1c.971 0 1.903-.395 2.59-1.098a3.8 3.8 0 0 0 1.074-2.652c0-.995-.386-1.948-1.074-2.652A3.62 3.62 0 0 0 98.206 90zM69.04 63.9a3.8 3.8 0 0 0 .849-1.217 3.82 3.82 0 0 0-.756-4.178 3.7 3.7 0 0 0-1.219-.826 3.6 3.6 0 0 0-2.863.052c-.45.205-.854.5-1.19.869l-7.181 7.35-2.296-2.35a3.62 3.62 0 0 0-2.563-1.006 3.62 3.62 0 0 0-2.526 1.098 3.8 3.8 0 0 0-1.072 2.585 3.8 3.8 0 0 0 .982 2.623l4.886 5a3.62 3.62 0 0 0 2.589 1.097c.971 0 1.902-.395 2.59-1.097zm0 22.2a3.8 3.8 0 0 1 1.072 2.65c0 .994-.386 1.947-1.072 2.65l-9.77 10a3.62 3.62 0 0 1-2.59 1.097 3.62 3.62 0 0 1-2.59-1.097l-4.885-5a3.8 3.8 0 0 1-.849-1.217 3.83 3.83 0 0 1-.05-2.931 3.8 3.8 0 0 1 .806-1.247 3.7 3.7 0 0 1 1.219-.826 3.6 3.6 0 0 1 2.863.052c.45.205.854.5 1.19.869l2.296 2.35 7.182-7.35a3.62 3.62 0 0 1 2.589-1.097c.97 0 1.902.395 2.589 1.097m25.472-50.68a11.36 11.36 0 0 0-3.482-7.413A10.86 10.86 0 0 0 83.55 25h-17.1a10.85 10.85 0 0 0-7.327 2.865A11.34 11.34 0 0 0 55.527 35H46.91a10.87 10.87 0 0 0-7.772 3.295 11.4 11.4 0 0 0-3.22 7.955v67.5c0 2.984 1.158 5.845 3.22 7.955A10.87 10.87 0 0 0 46.909 125h56.182c1.443 0 2.873-.291 4.206-.856a11 11 0 0 0 3.566-2.439 11.3 11.3 0 0 0 2.383-3.65c.553-1.365.837-2.828.837-4.305v-67.5c0-1.477-.284-2.94-.837-4.305a11.3 11.3 0 0 0-2.383-3.65 11 11 0 0 0-3.566-2.439 10.8 10.8 0 0 0-4.206-.856h-8.618zm0 .06.03.77c0-.26-.014-.517-.03-.77M66.451 47.5H83.55c3.81 0 7.166-1.985 9.14-5h10.401c.972 0 1.904.395 2.591 1.098a3.8 3.8 0 0 1 1.073 2.652v67.5c0 .995-.386 1.948-1.073 2.652a3.62 3.62 0 0 1-2.591 1.098H46.909a3.62 3.62 0 0 1-2.59-1.098 3.8 3.8 0 0 1-1.074-2.652v-67.5c0-.995.386-1.948 1.073-2.652A3.62 3.62 0 0 1 46.91 42.5h10.4c1.974 3.015 5.33 5 9.14 5m0-15h17.1c.971 0 1.903.395 2.59 1.098a3.8 3.8 0 0 1 1.073 2.652c0 .995-.385 1.948-1.073 2.652A3.62 3.62 0 0 1 83.55 40h-17.1a3.62 3.62 0 0 1-2.59-1.098 3.8 3.8 0 0 1-1.073-2.652c0-.995.386-1.948 1.073-2.652a3.62 3.62 0 0 1 2.59-1.098"/></svg>