<svg xmlns="http://www.w3.org/2000/svg" width="150" height="150" fill="none"><rect width="150" height="150" fill="#014D41" rx="20"/><path fill="#fff" d="M45 105q-3.094 0-5.295-2.201T37.5 97.5v-45q0-3.094 2.205-5.295T45 45h19.406q1.5 0 2.861.563a7.2 7.2 0 0 1 2.39 1.593L75 52.5h33.75q1.593 0 2.674 1.08t1.076 2.67q-.004 1.59-1.08 2.674T108.75 60H71.906l-7.5-7.5H45v45l7.406-24.656q.75-2.437 2.768-3.889t4.451-1.455H108q3.843 0 6.049 3.049 2.205 3.048 1.17 6.607l-6.75 22.5q-.75 2.438-2.764 3.893T101.25 105zm7.875-7.5h48.375L108 75H59.625z"/></svg>