<svg xmlns="http://www.w3.org/2000/svg" width="150" height="150" fill="none"><rect width="150" height="150" fill="#014D41" rx="20"/><path fill="#fff" d="M51.2 98.1q-2-1.1-3.1-2.948T47 91V71.8l-9.6-5.3q-1.1-.6-1.6-1.5t-.5-2 .5-2 1.6-1.5l33.8-18.4a8 8 0 0 1 1.853-.752A7.5 7.5 0 0 1 75 40.1a7.75 7.75 0 0 1 3.8 1l38.1 20.8a3.63 3.63 0 0 1 1.552 1.452q.551.952.548 2.048V91q0 1.7-1.152 2.852T115.001 95t-2.848-1.152T111.001 91V67.4l-8 4.4V91q0 2.3-1.1 4.152t-3.1 2.948l-20 10.8q-.9.5-1.848.752A7.4 7.4 0 0 1 75 109.9a7.6 7.6 0 0 1-3.8-1zM75 77.8 102.402 63l-27.4-14.8L47.6 63zm0 24.1 20-10.8V76l-16.1 8.9a8 8 0 0 1-3.9 1 8.6 8.6 0 0 1-2-.248 7.4 7.4 0 0 1-1.9-.752L55 76v15.1z"/></svg>