<svg xmlns="http://www.w3.org/2000/svg" width="150" height="150" fill="none"><rect width="150" height="150" fill="#043D37" rx="20"/><path stroke="#fff" stroke-linecap="round" stroke-width="8" d="M34.04 93.88c-4.164 0-7.54 3.384-7.54 7.56 0 4.175 3.376 7.56 7.54 7.56h81.919c4.165 0 7.541-3.385 7.541-7.56 0-4.176-3.376-7.56-7.541-7.56m-81.918 0h81.918m-81.918 0c.822-25.98 18.093-38.776 26.626-41.926m55.292 41.925c0-26.942-18.205-39.176-27.308-41.925m-2.683 27.664 2.683-27.664.916-7.732c.686-4.296-30.505-4.296-29.991 0l1.09 7.732 3.194 27.664"/></svg>