<svg xmlns="http://www.w3.org/2000/svg" width="150" height="150" fill="none"><rect width="150" height="150" fill="#0D6E5E" rx="20"/><path fill="#fff" d="M86.483 39.853a29.165 29.165 0 0 0-40.35 22.641c2.167.167 3.867 2 3.867 4.159v25c0 2.333-1.875 4.166-4.192 4.166H37.5A12.5 12.5 0 0 1 25 83.328v-8.334a12.5 12.5 0 0 1 12.5-12.5h.233a37.5 37.5 0 0 1 74.534 0h.233a12.5 12.5 0 0 1 12.5 12.5v8.334a12.5 12.5 0 0 1-11.617 12.466c-.758 5.334-2.825 9.5-5.708 12.667a24.4 24.4 0 0 1-10.692 6.633 33.4 33.4 0 0 1-6.316 1.367 8.336 8.336 0 0 1-9.25 4.144 8.34 8.34 0 0 1-6.41-7.852 8.333 8.333 0 0 1 15.401-4.667 25 25 0 0 0 4.025-.925c2.675-.867 5.184-2.225 7.084-4.325a14.17 14.17 0 0 0 3.416-7.008h-.75A4.2 4.2 0 0 1 100 91.66v-25c0-2.233 1.708-4 3.867-4.158a29.17 29.17 0 0 0-17.384-22.65"/></svg>