<svg xmlns="http://www.w3.org/2000/svg" width="150" height="150" fill="none"><rect width="150" height="150" fill="#014D41" rx="20"/><g stroke="#fff" stroke-linecap="round" stroke-linejoin="round" stroke-miterlimit="10" stroke-width="4.95" clip-path="url(#a)"><path d="M90.675 112.124v-70.95c0-1.98-1.32-3.3-3.3-3.3h-46.2c-1.98 0-3.3 1.32-3.3 3.3v70.95h74.25v-39.6c0-1.98-1.32-3.3-3.3-3.3h-18.15"/><path d="M58.335 112.125v-10.89c0-3.3 2.64-5.94 5.94-5.94s5.94 2.64 5.94 5.94v10.89M58.5 47.775h-9.9v13.2h9.9zm21.45 0h-9.9v13.2h9.9zM58.5 72.525h-9.9v13.2h9.9zm21.45 0h-9.9v13.2h9.9z"/></g><defs><clipPath id="a"><path fill="#fff" d="M35.4 35.4h79.2v79.2H35.4z"/></clipPath></defs></svg>