<svg xmlns="http://www.w3.org/2000/svg" width="150" height="150" fill="none"><rect width="150" height="150" fill="#014D41" rx="20"/><g clip-path="url(#a)"><path fill="#fff" fill-rule="evenodd" d="M35 64.482c0 16.281 12.5 28.541 29.481 28.541 7.434 0 12.834-1.108 18.019-5.648l3.484 3.66.981 7.15 11.068 11.971 12.669-11.97-12.669-11.363-6.62-.788L87.5 82.5c4.71-5.368 6.474-10.877 6.463-18.018C93.963 48.2 80.763 35 64.481 35 48.2 35 35 48.2 35 64.482m6.867 0c0 14.112 9.711 21.553 22.614 22.341 12.504 0 23.019-8.23 23.019-22.341 0-13.256-8.907-23.234-23.019-23.234-13.176 0-22.614 9.122-22.614 23.234m56.166 38.174 4.468-4.47-7.24-6.465h-3.847v3.435z" clip-rule="evenodd"/></g><defs><clipPath id="a"><path fill="#fff" d="M35 35h80v80H35z"/></clipPath></defs></svg>