<svg xmlns="http://www.w3.org/2000/svg" width="150" height="150" fill="none"><g stroke="#fff" stroke-linecap="round" stroke-linejoin="round" stroke-miterlimit="10" stroke-width="5.94" clip-path="url(#a)"><path d="M93.81 119.549v-85.14c0-2.376-1.585-3.96-3.96-3.96H34.41c-2.376 0-3.96 1.584-3.96 3.96v85.14h89.099v-47.52c0-2.376-1.584-3.96-3.96-3.96h-21.78"/><path d="M55.002 119.55v-13.068a7.1 7.1 0 0 1 7.128-7.128 7.1 7.1 0 0 1 7.128 7.128v13.068M55.2 42.33H43.32v15.84H55.2zm25.74 0H69.06v15.84h11.88zM55.2 72.03H43.32v15.84H55.2zm25.74 0H69.06v15.84h11.88z"/></g><defs><clipPath id="a"><path fill="#fff" d="M27.48 27.48h95.04v95.04H27.48z"/></clipPath></defs></svg>