<svg xmlns="http://www.w3.org/2000/svg" width="150" height="150" fill="none"><g clip-path="url(#a)"><path fill="#fff" fill-rule="evenodd" d="M27 62.378c0 19.538 15 34.25 35.378 34.25 8.92 0 15.4-1.33 21.622-6.778l4.181 4.392 1.177 8.581 13.282 14.364 15.202-14.364-15.202-13.635-7.943-.946L90 84c5.652-6.442 7.769-13.052 7.756-21.622C97.756 42.84 81.916 27 62.378 27S27 42.84 27 62.378m8.24 0c0 16.934 11.654 25.864 27.138 26.81C77.382 89.188 90 79.312 90 62.378c0-15.907-10.688-27.88-27.622-27.88-15.812 0-27.137 10.946-27.137 27.88m67.4 45.809 5.361-5.364-8.687-7.758h-4.617v4.122z" clip-rule="evenodd"/></g><defs><clipPath id="a"><path fill="#fff" d="M27 27h96v96H27z"/></clipPath></defs></svg>