<svg xmlns="http://www.w3.org/2000/svg" width="150" height="150" fill="none"><path fill="#fff" d="M46.44 102.72q-2.4-1.32-3.72-3.537-1.32-2.219-1.32-4.983V71.16L29.88 64.8q-1.32-.72-1.92-1.8t-.6-2.4.6-2.4 1.92-1.8l40.56-22.08q1.08-.6 2.223-.902t2.338-.298a9.3 9.3 0 0 1 4.56 1.2l45.72 24.96q1.2.6 1.862 1.742a4.8 4.8 0 0 1 .658 2.458V94.2q0 2.04-1.383 3.422-1.382 1.383-3.417 1.378t-3.418-1.382q-1.382-1.378-1.382-3.418V65.88l-9.6 5.28V94.2q0 2.76-1.32 4.983-1.32 2.221-3.72 3.537l-24 12.96q-1.08.6-2.218.902a9 9 0 0 1-2.342.298 9.5 9.5 0 0 1-2.343-.298 9 9 0 0 1-2.217-.902zM75 78.36l32.881-17.76-32.88-17.76L42.12 60.6zm0 28.92 24-12.96V76.2L79.68 86.88q-1.08.6-2.28.903-1.2.302-2.4.297-1.2-.004-2.4-.297a9 9 0 0 1-2.28-.903L51 76.2v18.12z"/></svg>