<svg xmlns="http://www.w3.org/2000/svg" width="205" height="205" fill="none"><path fill="#000" d="M102.375 173.775c29.578 0 53.55-17.85 53.55-49.088 0-13.387-4.462-35.7-22.312-53.55 2.231 13.388-11.157 17.85-11.157 17.85 6.694-22.312-11.156-53.55-37.93-58.012 3.185 17.85 4.462 35.7-17.85 53.55-11.157 8.925-17.85 24.356-17.85 40.162 0 31.238 23.972 49.088 53.549 49.088m0-8.925c-14.788 0-26.775-8.925-26.775-24.544 0-6.694 2.231-17.85 11.156-26.775-1.115 6.694 6.694 11.156 6.694 11.156-3.347-11.156 4.463-29.006 17.85-31.237-1.597 8.925-2.231 17.85 8.925 26.775 5.578 4.462 8.925 12.174 8.925 20.081 0 15.619-11.986 24.544-26.775 24.544"/></svg>