<svg xmlns="http://www.w3.org/2000/svg" width="150" height="150" fill="none"><path fill="#fff" d="M28.846 0c-6.3 0-11.538 5.238-11.538 11.539v109.615c0 6.3 5.238 11.538 11.538 11.538h11.539V150l17.307-11.538L75 150v-41.285c-.796.459-1.645.822-2.527 1.079a11.08 11.08 0 0 1-6.306 5.769c-1.22.402-2.5.585-3.784.543-1.616 0-3.231-.208-4.69-.9-1.48.641-3.08.948-4.691.9-1.293 0-2.556-.098-3.785-.543a11.2 11.2 0 0 1-6.311-5.769c-.88-.258-1.727-.62-2.521-1.079v12.439H28.846V11.539h92.308v109.615H92.308a5.769 5.769 0 0 0 0 11.538h28.846c6.3 0 11.538-5.238 11.538-11.538V11.539c0-6.3-5.238-11.539-11.538-11.539zm16.229 28.846a5.794 5.794 0 1 0 1.079 11.539h57.692a5.77 5.77 0 0 0 4.08-9.85 5.77 5.77 0 0 0-4.08-1.689H46.154a6 6 0 0 0-.543 0 6 6 0 0 0-.536 0m0 23.077a5.794 5.794 0 1 0 1.079 11.539h40.384a5.77 5.77 0 1 0 0-11.539H46.154a6 6 0 0 0-.543 0 6 6 0 0 0-.536 0m12.617 21.092a5.51 5.51 0 0 0-5.227 3.785c-.236.08-.496.092-.72.185a5.42 5.42 0 0 0-6.312.542 5.48 5.48 0 0 0-1.621 6.127c-.156.236-.22.473-.364.721a5.48 5.48 0 0 0-4.506 4.506 5.37 5.37 0 0 0 2.706 5.59c.04.364-.075.733 0 1.085a5.45 5.45 0 0 0-.542 6.127 5.55 5.55 0 0 0 5.59 2.705c.288.272.583.474.9.722.058 2.232 1.483 4.269 3.606 5.048 2.1.767 4.477.029 5.948-1.627.213.011.323.184.542.184.237 0 .485-.173.721-.184a5.36 5.36 0 0 0 3.97 1.806c.623 0 1.188.04 1.8-.179a5.54 5.54 0 0 0 3.605-5.048c.306-.243.606-.45.9-.722a5.57 5.57 0 0 0 5.59-2.705 5.45 5.45 0 0 0-.541-6.133c.08-.346-.052-.727 0-1.079a5.31 5.31 0 0 0 2.705-5.59 5.48 5.48 0 0 0-4.505-4.506c-.139-.254-.208-.479-.364-.721a5.48 5.48 0 0 0-1.621-6.133 5.39 5.39 0 0 0-6.312-.536c-.23-.093-.484-.104-.72-.18a5.51 5.51 0 0 0-5.228-3.79m0 10.097a9.155 9.155 0 0 1 9.196 9.196 9.144 9.144 0 0 1-9.196 9.196 9.14 9.14 0 0 1-6.518-2.678 9.14 9.14 0 0 1-2.678-6.518 9.15 9.15 0 0 1 9.196-9.196"/></svg>