<svg xmlns="http://www.w3.org/2000/svg" width="150" height="150" fill="none"><g stroke="#fff" stroke-linecap="round" stroke-linejoin="round" stroke-miterlimit="10" clip-path="url(#a)"><path stroke-width="12" d="M104.133 144V12.133C104.133 8.453 101.68 6 98 6H12.133C8.453 6 6 8.453 6 12.133V144h138V70.4c0-3.68-2.453-6.133-6.133-6.133h-33.734"/><path stroke-width="10" d="M44.045 144v-20.162c0-6.109 4.933-10.997 11.099-10.997s11.099 4.888 11.099 10.997V144M44.353 24.863H25.857v24.439h18.498zm40.079 0H65.934v24.439h18.498zM44.354 70.685H25.856v24.438h18.498zm40.078 0H65.934v24.438h18.498z"/></g><defs><clipPath id="a"><path fill="#fff" d="M0 0h150v150H0z"/></clipPath></defs></svg>