<svg xmlns="http://www.w3.org/2000/svg" width="150" height="150" fill="none"><path fill="#fff" d="M112.725 67.725a5.6 5.6 0 0 0 1.789-4.016 5.6 5.6 0 0 0-1.646-4.077 5.63 5.63 0 0 0-6.267-1.16c-.69.307-1.311.75-1.826 1.303L67.5 97.05 52.725 82.275a5.625 5.625 0 0 0-7.95 7.95l18.75 18.75a5.627 5.627 0 0 0 7.95 0zm-7.77-52.095A16.874 16.874 0 0 0 88.125 0h-26.25a16.875 16.875 0 0 0-16.77 15h-13.23A16.875 16.875 0 0 0 15 31.875v101.25A16.87 16.87 0 0 0 31.875 150h86.25a16.86 16.86 0 0 0 11.932-4.943A16.88 16.88 0 0 0 135 133.125V31.875A16.874 16.874 0 0 0 118.125 15h-13.23zm0 .09.045 1.155c0-.39-.02-.775-.045-1.155m-43.08 18.03h26.25c5.85 0 11.002-2.977 14.033-7.5h15.967a5.62 5.62 0 0 1 5.625 5.625v101.25a5.62 5.62 0 0 1-1.648 3.977 5.62 5.62 0 0 1-3.977 1.648h-86.25a5.625 5.625 0 0 1-5.625-5.625V31.875a5.625 5.625 0 0 1 5.625-5.625h15.968c3.03 4.523 8.182 7.5 14.032 7.5m0-22.5h26.25a5.625 5.625 0 1 1 0 11.25h-26.25a5.625 5.625 0 1 1 0-11.25"/></svg>