<svg xmlns="http://www.w3.org/2000/svg" width="205" height="205" fill="none"><path fill="#000" d="M155.025 65.925h-20.25v-12.15c0-6.708-5.442-12.15-12.15-12.15h-40.5c-6.708 0-12.15 5.442-12.15 12.15v12.15h-20.25c-6.708 0-12.15 5.442-12.15 12.15v72.9c0 6.708 5.442 12.15 12.15 12.15h105.3c6.708 0 12.15-5.442 12.15-12.15v-72.9c0-6.708-5.442-12.15-12.15-12.15m-68.85-8.1h32.4v8.1h-32.4zm40.5 62.775a2.03 2.03 0 0 1-2.025 2.025h-14.175V136.8a2.03 2.03 0 0 1-2.025 2.025H96.3a2.03 2.03 0 0 1-2.025-2.025v-14.175H80.1a2.03 2.03 0 0 1-2.025-2.025v-12.15a2.03 2.03 0 0 1 2.025-2.025h14.175V92.25a2.03 2.03 0 0 1 2.025-2.025h12.15a2.03 2.03 0 0 1 2.025 2.025v14.175h14.175a2.03 2.03 0 0 1 2.025 2.025z"/></svg>