<svg xmlns="http://www.w3.org/2000/svg" width="205" height="205" fill="none"><path fill="#000" d="M68.26 68.26a34.115 34.115 0 1 0 68.23 0 34.115 34.115 0 0 0-68.23 0m25.187 53.358 4.957 8.262-8.875 33.022-9.595-39.152c-.533-2.159-2.612-3.572-4.77-3.012-18.657 4.664-32.49 21.562-32.49 41.684 0 4.531 3.679 8.182 8.183 8.182h103.036c4.531 0 8.183-3.678 8.183-8.182 0-20.122-13.833-37.02-32.489-41.684-2.159-.533-4.238.88-4.771 3.012l-9.595 39.152-8.875-33.022 4.958-8.262c1.705-2.852-.347-6.45-3.652-6.45H97.125c-3.305 0-5.357 3.625-3.652 6.45z"/></svg>