<svg xmlns="http://www.w3.org/2000/svg" width="205" height="205" fill="none"><path fill="#000" d="M112.608 40.324c0-3.9-3.152-7.051-7.053-7.051a7.045 7.045 0 0 0-7.054 7.051v45.833a3.537 3.537 0 0 1-3.527 3.526 3.537 3.537 0 0 1-3.526-3.526V47.375c0-3.9-3.152-7.05-7.054-7.05a7.045 7.045 0 0 0-7.053 7.05v59.936c0 .33 0 .683.022 1.013L64.027 95.632c-3.527-3.35-9.104-3.217-12.476.309-3.373 3.525-3.218 9.1.308 12.472l24.776 23.577c4.362 4.159 6.347 7.141 7.759 7.757 6.394 2.788 0 31.73 0 31.73h63.482s0-27.5 2.821-35.961c7.492-7.071 4.233-17.092 4.233-28.205V61.478c0-3.9-3.152-7.052-7.054-7.052a7.045 7.045 0 0 0-7.053 7.052v24.68a3.537 3.537 0 0 1-3.527 3.525 3.537 3.537 0 0 1-3.527-3.526V47.375c0-3.9-3.152-7.05-7.054-7.05a7.045 7.045 0 0 0-7.053 7.05v38.782a3.537 3.537 0 0 1-3.527 3.526 3.537 3.537 0 0 1-3.527-3.526z"/></svg>