<svg xmlns="http://www.w3.org/2000/svg" width="205" height="205" fill="none"><g fill="#000" clip-path="url(#a)"><path d="M173.884 83.588a25.86 25.86 0 0 0-24.718-18.494 25.1 25.1 0 0 0-10.713 2.275l-13.527-13.885a17.953 17.953 0 0 0-15.566-22.521 17.95 17.95 0 0 0-10.05 1.932 17.95 17.95 0 0 0-8.737 10.953L52.987 72.755a19.15 19.15 0 0 0-11.551 2.095 19.69 19.69 0 0 0 11.012 37.047l28.489 29.267v-2.574a27.17 27.17 0 0 1 9.636-20.827L69.745 96.695a19.45 19.45 0 0 0 0-9.276l29.147-23.043a17.95 17.95 0 0 0 13.945 1.616l13.406 13.526a25.15 25.15 0 0 0-2.693 11.372 25.79 25.79 0 0 0 19.212 24.957 7 7 0 0 0 1.915 0 7.481 7.481 0 0 0 1.855-14.723 10.83 10.83 0 0 1-7.667-7.582 10.837 10.837 0 0 1 7.469-13.307 10.83 10.83 0 0 1 13.365 7.363 7.5 7.5 0 0 0 3.462 4.934 7.49 7.49 0 0 0 8.691-.676 7.47 7.47 0 0 0 2.658-5.41 7.5 7.5 0 0 0-.507-3.037zM50.533 98.551a6.284 6.284 0 1 1 6.344-6.285 5.985 5.985 0 0 1-6.344 6.285m57.097-43.212a6.59 6.59 0 0 1-5.87-4.279 6.58 6.58 0 0 1 1.64-7.076 6.59 6.59 0 0 1 7.154-1.26 6.59 6.59 0 0 1 3.959 6.09 6.53 6.53 0 0 1-2.036 4.746 6.53 6.53 0 0 1-4.847 1.779"/><path d="M124.929 151.722h-3.89v-14.184a18.375 18.375 0 0 0-31.366-12.993 18.38 18.38 0 0 0-5.382 12.993v14.184h-3.83a8.976 8.976 0 0 0-8.978 8.978v9.336a2.99 2.99 0 0 0 2.993 2.993h56.438a2.993 2.993 0 0 0 2.993-2.993V160.7a8.975 8.975 0 0 0-8.978-8.978m-21.845-8.02a6.343 6.343 0 0 1 0-12.568 6.345 6.345 0 1 1 0 12.628z"/></g><defs><clipPath id="a"><path fill="#fff" d="M30.875 30.875h143v143h-143z"/></clipPath></defs></svg>