<svg xmlns="http://www.w3.org/2000/svg" width="205" height="205" fill="none"><path fill="#000" d="m102.374 147.377-35.405 21.329q-2.347 1.492-4.905 1.279-2.56-.213-4.48-1.706a10.24 10.24 0 0 1-2.985-3.728q-1.066-2.235-.427-5.017l9.385-40.31-31.353-27.086q-2.133-1.92-2.661-4.377a8.55 8.55 0 0 1 .315-4.794q.844-2.338 2.56-3.84 1.715-1.5 4.692-1.92l41.376-3.625 15.996-37.964q1.067-2.56 3.31-3.839 2.244-1.28 4.582-1.28t4.581 1.28 3.31 3.839l15.996 37.964 41.377 3.626q2.987.426 4.692 1.92 1.707 1.492 2.559 3.838a8.54 8.54 0 0 1 .325 4.804q-.53 2.457-2.671 4.368l-31.352 27.086 9.384 40.31q.64 2.773-.426 5.017a10.14 10.14 0 0 1-2.986 3.728q-1.92 1.484-4.479 1.706t-4.905-1.279z"/></svg>