<svg xmlns="http://www.w3.org/2000/svg" width="205" height="205" fill="none"><path fill="#000" d="M51.189 170.625q-3.626 0-6.075-2.457-2.448-2.457-2.457-6.074t2.457-6.074 6.075-2.457h5.118l16.85-56.093q1.706-5.546 6.296-8.847t10.126-3.31h25.594q5.545 0 10.135 3.31t6.288 8.847l16.849 56.093h5.118q3.626 0 6.083 2.457t2.449 6.074q-.009 3.618-2.457 6.083t-6.075 2.448zM93.845 59.719V34.125q0-3.626 2.457-6.074t6.074-2.457 6.083 2.457 2.448 6.074V59.72q0 3.626-2.457 6.083t-6.074 2.448-6.074-2.457-2.457-6.074m44.789 11.517 18.129-18.129q2.346-2.346 5.869-2.457 3.524-.11 6.074 2.457 2.347 2.347 2.347 5.972t-2.347 5.972l-18.128 18.342q-2.56 2.56-5.972 2.56t-5.972-2.56-2.56-6.074 2.56-6.083m23.461 39.671h25.593q3.626 0 6.083 2.457t2.449 6.074q-.009 3.617-2.457 6.083-2.449 2.465-6.075 2.448h-25.593q-3.626 0-6.075-2.457-2.448-2.457-2.457-6.074-.007-3.617 2.457-6.074 2.466-2.457 6.075-2.457M54.175 83.18l-18.13-18.129q-2.346-2.347-2.448-5.86-.102-3.516 2.448-6.084 2.347-2.346 5.972-2.346 3.627 0 5.972 2.346l18.343 18.13q2.559 2.559 2.559 5.971t-2.56 5.972q-2.558 2.56-6.074 2.56-3.514 0-6.083-2.56m-37.111 44.79q-3.626 0-6.075-2.457-2.448-2.457-2.457-6.074t2.457-6.074 6.075-2.457h25.593q3.626 0 6.083 2.457t2.448 6.074-2.457 6.083-6.074 2.448z"/></svg>