<svg xmlns="http://www.w3.org/2000/svg" width="205" height="205" fill="none"><path fill="#000" d="M46.375 161.875q-8.75 0-14.875-6.125t-6.125-14.875q0-4.55 1.75-8.659t5.25-7.091v-26.25q0-2.975 2.016-4.984t4.984-2.016h7v-35q0-2.975 2.016-4.984t4.984-2.016H93.1q4.2 0 7.7 2.275t5.25 6.3l29.225 68.95a26.6 26.6 0 0 1 1.575 4.9q.525 2.45.525 5.075 0 10.15-7.175 17.325t-17.325 7.175q-7.175 0-13.216-3.759t-9.002-10.241h-24.5q-2.275 6.3-7.7 10.15t-12.082 3.85m126-7h-21q-2.975 0-4.984-2.016t-2.016-4.984v-98q0-2.975 2.016-4.984t4.984-2.016q2.968-.008 4.991 2.016t2.009 4.984v91h14q2.975 0 4.991 2.016t2.009 4.984-2.016 4.991-4.984 2.009m-121.009-9.009q2.01-2.016 2.009-4.991t-2.016-4.984-4.984-2.016-4.984 2.016-2.016 4.984 2.016 4.991 4.984 2.009c1.979-.014 3.642-.679 4.991-2.009m68.95-1.057q3.059-3.052 3.059-7.434t-3.059-7.434q-3.059-3.053-7.441-3.066t-7.434 3.066q-3.053 3.08-3.066 7.434t3.066 7.441 7.434 3.059c2.903-.019 5.383-1.045 7.441-3.066M80.85 112.875h33.075l-20.825-49H60.375v28z"/></svg>