<svg xmlns="http://www.w3.org/2000/svg" width="205" height="205" fill="none"><path fill="#000" fill-rule="evenodd" d="M56.875 23.625c-2.079 0-3.86.298-5.355.742-4.897 1.456-6.44 6.542-6.5 10.654-.15 9.646-.395 31.248-.395 67.354s.245 57.708.395 67.354c.063 4.113 1.603 9.198 6.5 10.654 1.494.445 3.276.742 5.355.742s3.86-.297 5.355-.742c4.896-1.456 6.44-6.541 6.5-10.654.034-2.065.07-4.672.105-7.854h67.081c.035 3.185.069 5.793.104 7.854.063 4.113 1.604 9.198 6.5 10.654 1.495.445 3.276.742 5.355.742s3.86-.297 5.355-.742c4.896-1.456 6.44-6.541 6.5-10.654.147-9.646.395-31.248.395-67.354s-.245-57.708-.395-67.354c-.063-4.112-1.604-9.198-6.5-10.654-1.495-.444-3.276-.742-5.355-.742s-3.86.298-5.355.742c-4.896 1.456-6.44 6.542-6.5 10.654-.035 2.065-.069 4.673-.104 7.854H68.835c-.035-3.185-.07-5.792-.105-7.854-.064-4.112-1.604-9.198-6.5-10.654a18.9 18.9 0 0 0-5.355-.742m78.907 33.25H68.967c.046 5.968.088 12.95.116 21h66.584c.028-8.05.07-15.032.115-21m-.15 35H69.118q.015 10.5 0 21h66.514q-.015-10.5 0-21m.035 35H69.083a5146 5146 0 0 1-.115 21h66.814a5146 5146 0 0 1-.115-21" clip-rule="evenodd"/></svg>